<svg width="322" height="219" viewBox="0 0 322 219" fill="none" xmlns="http://www.w3.org/2000/svg">
<g clip-path="url(#clip0_594_1949)">
<path d="M117.79 69.13L113.25 65.44L160.54 0L235.73 102.26L231.05 105.77L160.54 9.86L117.79 69.13Z" fill="url(#paint0_linear_594_1949)"/>
<path d="M296.3 184.63L291.62 188.14L309.47 212.41H11.6L37.12 177.72L32.57 174.03L0 218.33H321.08L296.3 184.63Z" fill="url(#paint1_linear_594_1949)"/>
<mask id="mask0_594_1949" style="mask-type:luminance" maskUnits="userSpaceOnUse" x="44" y="127" width="230" height="46">
<path d="M72.4899 127.99C74.4499 127.99 76.2899 128.09 77.9799 128.28C79.6799 128.48 81.2999 128.76 82.8499 129.12C84.3999 129.48 85.9099 129.92 87.3799 130.42C88.8499 130.92 90.3299 131.49 91.8199 132.11V136.83C90.6399 136.09 89.3799 135.38 88.0499 134.72C86.7199 134.06 85.2799 133.48 83.7299 132.98C82.1799 132.48 80.5299 132.09 78.7599 131.8C76.9899 131.51 75.0899 131.37 73.0599 131.37C68.9199 131.37 65.2999 131.8 62.2199 132.67C59.1299 133.54 56.5699 134.78 54.5199 136.39C52.4699 138 50.9399 139.97 49.9099 142.29C48.8899 144.61 48.3699 147.21 48.3699 150.11C48.3699 152.82 48.8699 155.32 49.8799 157.61C50.8899 159.9 52.4099 161.87 54.4499 163.52C56.4899 165.18 59.0399 166.47 62.1099 167.4C65.1799 168.33 68.7699 168.8 72.8899 168.8C74.4999 168.8 76.1099 168.74 77.6899 168.61C79.2699 168.49 80.7699 168.33 82.1799 168.13C83.5899 167.93 84.8699 167.72 86.0299 167.48C87.1899 167.24 88.1699 167 88.9799 166.75V153.81H71.6299V150.18H92.8599V168.93C91.3299 169.47 89.7799 169.94 88.2199 170.36C86.6599 170.78 85.0399 171.12 83.3799 171.4C81.7199 171.68 79.9899 171.89 78.1999 172.04C76.4099 172.18 74.5299 172.26 72.5699 172.26C68.5599 172.26 64.8299 171.81 61.3999 170.91C57.9599 170.01 54.9899 168.64 52.4799 166.81C49.9699 164.98 47.9999 162.68 46.5699 159.9C45.1399 157.13 44.4299 153.87 44.4299 150.12C44.4299 147.62 44.7599 145.34 45.4199 143.28C46.0799 141.22 47.0199 139.37 48.2299 137.72C49.4399 136.07 50.8999 134.64 52.6099 133.42C54.3199 132.2 56.2099 131.19 58.2899 130.39C60.3699 129.59 62.6099 128.99 65.0099 128.59C67.3799 128.19 69.8799 127.99 72.4899 127.99ZM105.24 171.41V128.76H140.78V132.39H109.46V147.07H139.19V150.61H109.46V167.77H141.24V171.4H105.24V171.41ZM204.37 150.12C204.37 153.95 203.68 157.25 202.29 160.04C200.91 162.82 199 165.12 196.58 166.93C194.16 168.74 191.31 170.08 188.02 170.95C184.73 171.82 181.19 172.25 177.38 172.25C173.55 172.25 169.99 171.82 166.68 170.95C163.37 170.08 160.5 168.74 158.05 166.93C155.61 165.12 153.7 162.82 152.31 160.04C150.92 157.26 150.23 153.95 150.23 150.12C150.23 147.57 150.55 145.26 151.19 143.18C151.83 141.1 152.73 139.24 153.89 137.59C155.05 135.95 156.45 134.52 158.1 133.32C159.74 132.12 161.57 131.12 163.59 130.32C165.61 129.52 167.77 128.93 170.09 128.55C172.41 128.17 174.84 127.98 177.38 127.98C181.19 127.98 184.73 128.41 188.02 129.28C191.31 130.15 194.16 131.49 196.58 133.3C199 135.11 200.9 137.41 202.29 140.19C203.68 142.98 204.37 146.29 204.37 150.12ZM200.4 150.12C200.4 147.1 199.91 144.43 198.93 142.11C197.95 139.79 196.49 137.84 194.57 136.26C192.64 134.68 190.25 133.48 187.38 132.66C184.51 131.84 181.18 131.43 177.4 131.43C173.62 131.43 170.27 131.84 167.38 132.67C164.49 133.5 162.07 134.7 160.13 136.29C158.19 137.88 156.71 139.83 155.72 142.16C154.73 144.49 154.23 147.14 154.23 150.12C154.23 153.14 154.73 155.81 155.72 158.13C156.71 160.45 158.18 162.4 160.13 163.98C162.08 165.56 164.49 166.76 167.38 167.58C170.27 168.4 173.61 168.81 177.4 168.81C181.19 168.81 184.52 168.4 187.38 167.58C190.25 166.76 192.64 165.56 194.57 163.98C196.49 162.4 197.95 160.45 198.93 158.13C199.91 155.81 200.4 153.14 200.4 150.12ZM269.98 171.41V135.13L246.55 171.41H243.1L219.64 134.97V171.41H215.76V128.76H219.92L244.94 167.4L269.68 128.76H273.81V171.41H269.98Z" fill="white"/>
</mask>
<g mask="url(#mask0_594_1949)">
<path d="M299.23 61.2202H27.4501V229.46H299.23V61.2202Z" fill="url(#paint2_linear_594_1949)"/>
</g>
</g>
<defs>
<linearGradient id="paint0_linear_594_1949" x1="112.001" y1="85.1802" x2="226.287" y2="41.1294" gradientUnits="userSpaceOnUse">
<stop offset="0.00920691" stop-color="white"/>
<stop offset="0.2604" stop-color="#ACA7A9"/>
<stop offset="0.6677" stop-color="#484445"/>
<stop offset="0.852" stop-color="#2A2728"/>
</linearGradient>
<linearGradient id="paint1_linear_594_1949" x1="-2.8054" y1="231.866" x2="256.838" y2="180.286" gradientUnits="userSpaceOnUse">
<stop offset="0.00920691" stop-color="white"/>
<stop offset="0.2807" stop-color="#ACA7A9"/>
<stop offset="0.7208" stop-color="#484445"/>
<stop offset="0.92" stop-color="#2A2728"/>
</linearGradient>
<linearGradient id="paint2_linear_594_1949" x1="27.4545" y1="145.343" x2="299.239" y2="145.343" gradientUnits="userSpaceOnUse">
<stop stop-color="#A4A3A3"/>
<stop offset="0.1562" stop-color="#9B9B9A"/>
<stop offset="0.4277" stop-color="#858484"/>
<stop offset="0.7797" stop-color="#646363"/>
<stop offset="1" stop-color="#4D4E4D"/>
</linearGradient>
<clipPath id="clip0_594_1949">
<rect width="322" height="219" fill="white"/>
</clipPath>
</defs>
</svg>
