<svg width="322" height="219" viewBox="0 0 322 219" fill="none" xmlns="http://www.w3.org/2000/svg">
<path d="M117.79 69.13L113.25 65.44L160.54 0L235.73 102.26L231.05 105.77L160.54 9.86L117.79 69.13Z" fill="url(#paint0_linear_576_1932)"/>
<path d="M296.3 184.63L291.62 188.14L309.47 212.41H11.6L37.12 177.72L32.57 174.03L0 218.33H321.08L296.3 184.63Z" fill="url(#paint1_linear_576_1932)"/>
<mask id="mask0_576_1932" style="mask-type:luminance" maskUnits="userSpaceOnUse" x="44" y="127" width="230" height="46">
<path d="M72.4899 127.99C74.4499 127.99 76.2899 128.09 77.9799 128.28C79.6799 128.48 81.2999 128.76 82.8499 129.12C84.3999 129.48 85.9099 129.92 87.3799 130.42C88.8499 130.92 90.3299 131.49 91.8199 132.11V136.83C90.6399 136.09 89.3799 135.38 88.0499 134.72C86.7199 134.06 85.2799 133.48 83.7299 132.98C82.1799 132.48 80.5299 132.09 78.7599 131.8C76.9899 131.51 75.0899 131.37 73.0599 131.37C68.9199 131.37 65.2999 131.8 62.2199 132.67C59.1299 133.54 56.5699 134.78 54.5199 136.39C52.4699 138 50.9399 139.97 49.9099 142.29C48.8899 144.61 48.3699 147.21 48.3699 150.11C48.3699 152.82 48.8699 155.32 49.8799 157.61C50.8899 159.9 52.4099 161.87 54.4499 163.52C56.4899 165.18 59.0399 166.47 62.1099 167.4C65.1799 168.33 68.7699 168.8 72.8899 168.8C74.4999 168.8 76.1099 168.74 77.6899 168.61C79.2699 168.49 80.7699 168.33 82.1799 168.13C83.5899 167.93 84.8699 167.72 86.0299 167.48C87.1899 167.24 88.1699 167 88.9799 166.75V153.81H71.6299V150.18H92.8599V168.93C91.3299 169.47 89.7799 169.94 88.2199 170.36C86.6599 170.78 85.0399 171.12 83.3799 171.4C81.7199 171.68 79.9899 171.89 78.1999 172.04C76.4099 172.18 74.5299 172.26 72.5699 172.26C68.5599 172.26 64.8299 171.81 61.3999 170.91C57.9599 170.01 54.9899 168.64 52.4799 166.81C49.9699 164.98 47.9999 162.68 46.5699 159.9C45.1399 157.13 44.4299 153.87 44.4299 150.12C44.4299 147.62 44.7599 145.34 45.4199 143.28C46.0799 141.22 47.0199 139.37 48.2299 137.72C49.4399 136.07 50.8999 134.64 52.6099 133.42C54.3199 132.2 56.2099 131.19 58.2899 130.39C60.3699 129.59 62.6099 128.99 65.0099 128.59C67.3799 128.19 69.8799 127.99 72.4899 127.99ZM105.24 171.41V128.76H140.78V132.39H109.46V147.07H139.19V150.61H109.46V167.77H141.24V171.4H105.24V171.41ZM204.37 150.12C204.37 153.95 203.68 157.25 202.29 160.04C200.91 162.82 199 165.12 196.58 166.93C194.16 168.74 191.31 170.08 188.02 170.95C184.73 171.82 181.19 172.25 177.38 172.25C173.55 172.25 169.99 171.82 166.68 170.95C163.37 170.08 160.5 168.74 158.05 166.93C155.61 165.12 153.7 162.82 152.31 160.04C150.92 157.26 150.23 153.95 150.23 150.12C150.23 147.57 150.55 145.26 151.19 143.18C151.83 141.1 152.73 139.24 153.89 137.59C155.05 135.95 156.45 134.52 158.1 133.32C159.74 132.12 161.57 131.12 163.59 130.32C165.61 129.52 167.77 128.93 170.09 128.55C172.41 128.17 174.84 127.98 177.38 127.98C181.19 127.98 184.73 128.41 188.02 129.28C191.31 130.15 194.16 131.49 196.58 133.3C199 135.11 200.9 137.41 202.29 140.19C203.68 142.98 204.37 146.29 204.37 150.12ZM200.4 150.12C200.4 147.1 199.91 144.43 198.93 142.11C197.95 139.79 196.49 137.84 194.57 136.26C192.64 134.68 190.25 133.48 187.38 132.66C184.51 131.84 181.18 131.43 177.4 131.43C173.62 131.43 170.27 131.84 167.38 132.67C164.49 133.5 162.07 134.7 160.13 136.29C158.19 137.88 156.71 139.83 155.72 142.16C154.73 144.49 154.23 147.14 154.23 150.12C154.23 153.14 154.73 155.81 155.72 158.13C156.71 160.45 158.18 162.4 160.13 163.98C162.08 165.56 164.49 166.76 167.38 167.58C170.27 168.4 173.61 168.81 177.4 168.81C181.19 168.81 184.52 168.4 187.38 167.58C190.25 166.76 192.64 165.56 194.57 163.98C196.49 162.4 197.95 160.45 198.93 158.13C199.91 155.81 200.4 153.14 200.4 150.12ZM269.98 171.41V135.13L246.55 171.41H243.1L219.64 134.97V171.41H215.76V128.76H219.92L244.94 167.4L269.68 128.76H273.81V171.41H269.98Z" fill="white"/>
</mask>
<g mask="url(#mask0_576_1932)">
<path d="M299.23 61.22H27.45V229.46H299.23V61.22Z" fill="url(#paint2_linear_576_1932)"/>
</g>
<path d="M59.3042 182.369C59.3042 182.737 59.2433 183.063 59.1216 183.346C59.0034 183.629 58.8154 183.867 58.5576 184.061C58.2998 184.254 57.9668 184.401 57.5586 184.501C57.154 184.598 56.6652 184.646 56.0923 184.646H52.7783V187.482H52.1069V180.102H56.0923C56.6652 180.102 57.154 180.152 57.5586 180.252C57.9668 180.349 58.2998 180.492 58.5576 180.682C58.8154 180.872 59.0034 181.108 59.1216 181.391C59.2433 181.674 59.3042 182 59.3042 182.369ZM58.6113 182.369C58.6113 182.018 58.5522 181.735 58.4341 181.52C58.3195 181.305 58.1405 181.14 57.897 181.026C57.6571 180.908 57.3509 180.829 56.9785 180.79C56.6097 180.75 56.1711 180.73 55.6626 180.73H52.7783V184.018H55.6626C55.8595 184.018 56.069 184.019 56.291 184.023C56.5166 184.023 56.7386 184.012 56.957 183.991C57.1755 183.966 57.3831 183.924 57.5801 183.867C57.7806 183.806 57.9561 183.715 58.1064 183.593C58.2604 183.472 58.3822 183.312 58.4717 183.115C58.5648 182.918 58.6113 182.669 58.6113 182.369ZM61.1196 187.482V180.102H67.2695V180.73H61.8501V183.271H66.9956V183.894H61.8501V186.854H67.3501V187.482H61.1196ZM70.0947 184.324V187.482H69.4233V180.102H73.0972C73.6593 180.102 74.141 180.147 74.542 180.236C74.943 180.322 75.2707 180.455 75.5249 180.634C75.7827 180.809 75.9707 181.029 76.0889 181.294C76.207 181.559 76.2661 181.869 76.2661 182.224C76.2661 182.775 76.1211 183.217 75.8311 183.55C75.541 183.88 75.0737 184.105 74.4292 184.227L76.9482 187.482H76.105L73.7256 184.302C73.6253 184.309 73.5233 184.315 73.4194 184.318C73.3156 184.322 73.2082 184.324 73.0972 184.324H70.0947ZM75.5732 182.224C75.5732 181.909 75.5177 181.654 75.4067 181.461C75.2957 181.264 75.1149 181.112 74.8643 181.004C74.6136 180.897 74.2842 180.825 73.876 180.79C73.4714 180.75 72.9736 180.73 72.3828 180.73H70.0947V183.695H72.3613C72.9521 183.695 73.4517 183.679 73.8599 183.647C74.2681 183.611 74.5993 183.541 74.8535 183.438C75.1077 183.33 75.2904 183.181 75.4014 182.992C75.516 182.798 75.5732 182.542 75.5732 182.224ZM79.2578 180.73V183.271H84.167V183.894H79.2578V187.482H78.5864V180.102H84.4302V180.73H79.2578ZM86.1597 187.482V180.102H92.3096V180.73H86.8901V183.271H92.0356V183.894H86.8901V186.854H92.3901V187.482H86.1597ZM102.031 186.896C101.773 187.004 101.517 187.102 101.263 187.192C101.013 187.281 100.751 187.358 100.479 187.423C100.207 187.487 99.9204 187.537 99.6196 187.573C99.3188 187.609 98.9912 187.627 98.6367 187.627C98.1999 187.627 97.7791 187.591 97.3745 187.52C96.9735 187.448 96.5993 187.34 96.252 187.197C95.9046 187.054 95.5895 186.877 95.3066 186.666C95.0238 186.451 94.7803 186.202 94.5762 185.919C94.3757 185.636 94.2199 185.317 94.1089 184.963C94.0015 184.608 93.9478 184.22 93.9478 183.797C93.9478 183.375 94.0015 182.986 94.1089 182.632C94.2199 182.277 94.3757 181.959 94.5762 181.676C94.7803 181.393 95.0238 181.146 95.3066 180.935C95.5895 180.72 95.9046 180.541 96.252 180.397C96.5993 180.254 96.9735 180.147 97.3745 180.075C97.7756 180.004 98.1963 179.968 98.6367 179.968C98.9912 179.968 99.3188 179.986 99.6196 180.021C99.9204 180.057 100.207 180.107 100.479 180.172C100.751 180.236 101.013 180.313 101.263 180.403C101.517 180.489 101.773 180.585 102.031 180.693V181.499C101.827 181.37 101.609 181.248 101.376 181.133C101.143 181.019 100.891 180.918 100.619 180.833C100.35 180.747 100.062 180.679 99.7539 180.628C99.446 180.578 99.1165 180.553 98.7656 180.553C98.0566 180.553 97.4425 180.63 96.9233 180.784C96.4041 180.938 95.9744 181.157 95.6343 181.439C95.2977 181.719 95.047 182.059 94.8823 182.46C94.7212 182.857 94.6406 183.303 94.6406 183.797C94.6406 184.292 94.7212 184.737 94.8823 185.135C95.047 185.532 95.2977 185.872 95.6343 186.155C95.9744 186.435 96.4041 186.651 96.9233 186.805C97.4425 186.956 98.0566 187.031 98.7656 187.031C99.1165 187.031 99.4478 187.006 99.7593 186.956C100.074 186.905 100.368 186.837 100.64 186.751C100.916 186.666 101.168 186.567 101.397 186.456C101.63 186.341 101.841 186.222 102.031 186.096V186.896ZM107.016 180.714V187.482H106.35V180.714H102.993V180.102H110.373V180.714H107.016ZM115.958 187.482V180.102H116.63V186.854H122.022V187.482H115.958ZM123.671 187.482V180.102H124.343V187.482H123.671ZM133.914 187.482L127.501 180.983V187.482H126.83V180.102H127.571L133.984 186.623V180.102H134.645V187.482H133.914ZM137.131 187.482V180.102H143.281V180.73H137.862V183.271H143.007V183.894H137.862V186.854H143.362V187.482H137.131ZM151.397 181.192C151.257 181.124 151.096 181.053 150.914 180.978C150.731 180.899 150.521 180.829 150.285 180.768C150.052 180.707 149.789 180.657 149.496 180.618C149.202 180.575 148.876 180.553 148.518 180.553C148.085 180.553 147.698 180.578 147.358 180.628C147.021 180.679 146.735 180.757 146.499 180.865C146.266 180.969 146.087 181.101 145.961 181.262C145.84 181.423 145.779 181.615 145.779 181.837C145.779 182.023 145.836 182.186 145.951 182.326C146.069 182.465 146.226 182.589 146.423 182.696C146.624 182.804 146.857 182.902 147.122 182.992C147.39 183.078 147.673 183.16 147.97 183.239C148.271 183.314 148.579 183.391 148.894 183.47C149.213 183.549 149.521 183.634 149.818 183.728C150.119 183.817 150.402 183.919 150.667 184.034C150.935 184.145 151.168 184.275 151.365 184.426C151.565 184.576 151.723 184.748 151.837 184.941C151.956 185.135 152.015 185.359 152.015 185.613C152.015 185.889 151.963 186.13 151.859 186.338C151.755 186.542 151.614 186.719 151.435 186.87C151.259 187.016 151.051 187.14 150.812 187.24C150.575 187.337 150.321 187.414 150.049 187.471C149.78 187.528 149.501 187.568 149.211 187.589C148.924 187.614 148.642 187.627 148.362 187.627C147.721 187.627 147.139 187.58 146.617 187.487C146.097 187.394 145.602 187.267 145.129 187.106V186.284C145.616 186.574 146.13 186.773 146.67 186.88C147.215 186.988 147.786 187.042 148.384 187.042C148.806 187.042 149.197 187.016 149.555 186.966C149.913 186.916 150.222 186.837 150.484 186.73C150.745 186.619 150.948 186.476 151.091 186.3C151.238 186.125 151.311 185.91 151.311 185.656C151.311 185.452 151.252 185.273 151.134 185.119C151.019 184.965 150.862 184.83 150.661 184.716C150.464 184.598 150.231 184.494 149.963 184.404C149.698 184.315 149.417 184.232 149.12 184.157C148.822 184.078 148.514 184.003 148.196 183.932C147.881 183.856 147.575 183.776 147.277 183.69C146.98 183.604 146.697 183.507 146.429 183.4C146.164 183.292 145.931 183.167 145.73 183.024C145.534 182.877 145.376 182.709 145.258 182.519C145.143 182.329 145.086 182.109 145.086 181.858C145.086 181.611 145.132 181.393 145.226 181.203C145.319 181.01 145.446 180.843 145.607 180.704C145.772 180.564 145.963 180.448 146.182 180.354C146.4 180.258 146.633 180.183 146.88 180.129C147.131 180.072 147.39 180.03 147.659 180.005C147.927 179.98 148.192 179.968 148.454 179.968C148.74 179.968 149.01 179.98 149.265 180.005C149.522 180.03 149.77 180.064 150.006 180.107C150.246 180.147 150.479 180.193 150.704 180.247C150.933 180.301 151.164 180.358 151.397 180.419V181.192ZM158.9 180.73V183.271H163.81V183.894H158.9V187.482H158.229V180.102H164.073V180.73H158.9ZM174.659 183.797C174.659 184.46 174.539 185.033 174.299 185.516C174.059 185.996 173.73 186.393 173.311 186.708C172.892 187.02 172.398 187.251 171.829 187.401C171.259 187.552 170.645 187.627 169.986 187.627C169.324 187.627 168.706 187.552 168.133 187.401C167.56 187.251 167.063 187.02 166.64 186.708C166.218 186.393 165.886 185.996 165.646 185.516C165.407 185.033 165.287 184.46 165.287 183.797C165.287 183.357 165.342 182.958 165.453 182.6C165.564 182.238 165.72 181.916 165.92 181.633C166.121 181.346 166.363 181.099 166.646 180.892C166.932 180.684 167.249 180.512 167.596 180.376C167.947 180.236 168.323 180.134 168.724 180.07C169.125 180.002 169.546 179.968 169.986 179.968C170.645 179.968 171.259 180.043 171.829 180.193C172.398 180.344 172.892 180.576 173.311 180.892C173.73 181.203 174.059 181.601 174.299 182.084C174.539 182.564 174.659 183.135 174.659 183.797ZM173.966 183.797C173.966 183.275 173.88 182.813 173.708 182.412C173.54 182.011 173.29 181.674 172.957 181.402C172.624 181.126 172.208 180.918 171.71 180.779C171.216 180.636 170.642 180.564 169.986 180.564C169.331 180.564 168.753 180.636 168.251 180.779C167.754 180.922 167.337 181.132 167 181.407C166.663 181.679 166.409 182.018 166.237 182.422C166.065 182.823 165.979 183.282 165.979 183.797C165.979 184.32 166.065 184.782 166.237 185.183C166.409 185.584 166.663 185.923 167 186.198C167.337 186.47 167.754 186.678 168.251 186.821C168.753 186.961 169.331 187.031 169.986 187.031C170.642 187.031 171.216 186.961 171.71 186.821C172.208 186.678 172.624 186.47 172.957 186.198C173.29 185.923 173.54 185.584 173.708 185.183C173.88 184.782 173.966 184.32 173.966 183.797ZM177.302 184.324V187.482H176.63V180.102H180.304C180.866 180.102 181.348 180.147 181.749 180.236C182.15 180.322 182.478 180.455 182.732 180.634C182.99 180.809 183.178 181.029 183.296 181.294C183.414 181.559 183.473 181.869 183.473 182.224C183.473 182.775 183.328 183.217 183.038 183.55C182.748 183.88 182.281 184.105 181.636 184.227L184.155 187.482H183.312L180.933 184.302C180.832 184.309 180.73 184.315 180.626 184.318C180.523 184.322 180.415 184.324 180.304 184.324H177.302ZM182.78 182.224C182.78 181.909 182.725 181.654 182.614 181.461C182.503 181.264 182.322 181.112 182.071 181.004C181.821 180.897 181.491 180.825 181.083 180.79C180.678 180.75 180.181 180.73 179.59 180.73H177.302V183.695H179.568C180.159 183.695 180.659 183.679 181.067 183.647C181.475 183.611 181.806 183.541 182.061 183.438C182.315 183.33 182.497 183.181 182.608 182.992C182.723 182.798 182.78 182.542 182.78 182.224ZM193.222 184.356V187.482H192.55V184.356L189.086 180.102H189.886L192.889 183.797L195.88 180.102H196.686L193.222 184.356ZM206.746 183.797C206.746 184.46 206.626 185.033 206.386 185.516C206.146 185.996 205.817 186.393 205.398 186.708C204.979 187.02 204.485 187.251 203.916 187.401C203.346 187.552 202.732 187.627 202.073 187.627C201.411 187.627 200.793 187.552 200.22 187.401C199.647 187.251 199.15 187.02 198.727 186.708C198.305 186.393 197.973 185.996 197.733 185.516C197.493 185.033 197.374 184.46 197.374 183.797C197.374 183.357 197.429 182.958 197.54 182.6C197.651 182.238 197.807 181.916 198.007 181.633C198.208 181.346 198.45 181.099 198.732 180.892C199.019 180.684 199.336 180.512 199.683 180.376C200.034 180.236 200.41 180.134 200.811 180.07C201.212 180.002 201.633 179.968 202.073 179.968C202.732 179.968 203.346 180.043 203.916 180.193C204.485 180.344 204.979 180.576 205.398 180.892C205.817 181.203 206.146 181.601 206.386 182.084C206.626 182.564 206.746 183.135 206.746 183.797ZM206.053 183.797C206.053 183.275 205.967 182.813 205.795 182.412C205.627 182.011 205.376 181.674 205.043 181.402C204.71 181.126 204.295 180.918 203.797 180.779C203.303 180.636 202.729 180.564 202.073 180.564C201.418 180.564 200.84 180.636 200.338 180.779C199.841 180.922 199.424 181.132 199.087 181.407C198.75 181.679 198.496 182.018 198.324 182.422C198.152 182.823 198.066 183.282 198.066 183.797C198.066 184.32 198.152 184.782 198.324 185.183C198.496 185.584 198.75 185.923 199.087 186.198C199.424 186.47 199.841 186.678 200.338 186.821C200.84 186.961 201.418 187.031 202.073 187.031C202.729 187.031 203.303 186.961 203.797 186.821C204.295 186.678 204.71 186.47 205.043 186.198C205.376 185.923 205.627 185.584 205.795 185.183C205.967 184.782 206.053 184.32 206.053 183.797ZM216.103 185.162C216.103 185.53 216.024 185.867 215.866 186.171C215.712 186.472 215.479 186.732 215.168 186.95C214.86 187.165 214.473 187.332 214.008 187.45C213.542 187.568 213 187.627 212.38 187.627C211.761 187.627 211.218 187.568 210.753 187.45C210.287 187.332 209.899 187.165 209.587 186.95C209.276 186.732 209.041 186.472 208.884 186.171C208.73 185.867 208.653 185.53 208.653 185.162V180.102H209.324V185.215C209.324 185.462 209.389 185.697 209.518 185.919C209.65 186.137 209.845 186.329 210.103 186.494C210.361 186.658 210.68 186.789 211.059 186.886C211.439 186.982 211.879 187.031 212.38 187.031C212.878 187.031 213.317 186.982 213.696 186.886C214.076 186.789 214.395 186.658 214.652 186.494C214.91 186.329 215.104 186.137 215.232 185.919C215.365 185.697 215.431 185.462 215.431 185.215V180.102H216.103V185.162ZM219.196 184.324V187.482H218.525V180.102H222.199C222.761 180.102 223.243 180.147 223.644 180.236C224.045 180.322 224.372 180.455 224.626 180.634C224.884 180.809 225.072 181.029 225.19 181.294C225.309 181.559 225.368 181.869 225.368 182.224C225.368 182.775 225.223 183.217 224.933 183.55C224.643 183.88 224.175 184.105 223.531 184.227L226.05 187.482H225.207L222.827 184.302C222.727 184.309 222.625 184.315 222.521 184.318C222.417 184.322 222.31 184.324 222.199 184.324H219.196ZM224.675 182.224C224.675 181.909 224.619 181.654 224.508 181.461C224.397 181.264 224.216 181.112 223.966 181.004C223.715 180.897 223.386 180.825 222.978 180.79C222.573 180.75 222.075 180.73 221.484 180.73H219.196V183.695H221.463C222.054 183.695 222.553 183.679 222.961 183.647C223.37 183.611 223.701 183.541 223.955 183.438C224.209 183.33 224.392 183.181 224.503 182.992C224.618 182.798 224.675 182.542 224.675 182.224ZM237.786 181.192C237.646 181.124 237.485 181.053 237.302 180.978C237.12 180.899 236.91 180.829 236.674 180.768C236.441 180.707 236.178 180.657 235.884 180.618C235.591 180.575 235.265 180.553 234.907 180.553C234.473 180.553 234.087 180.578 233.747 180.628C233.41 180.679 233.124 180.757 232.887 180.865C232.654 180.969 232.475 181.101 232.35 181.262C232.228 181.423 232.167 181.615 232.167 181.837C232.167 182.023 232.225 182.186 232.339 182.326C232.458 182.465 232.615 182.589 232.812 182.696C233.013 182.804 233.245 182.902 233.51 182.992C233.779 183.078 234.062 183.16 234.359 183.239C234.66 183.314 234.968 183.391 235.283 183.47C235.601 183.549 235.909 183.634 236.207 183.728C236.507 183.817 236.79 183.919 237.055 184.034C237.324 184.145 237.556 184.275 237.753 184.426C237.954 184.576 238.111 184.748 238.226 184.941C238.344 185.135 238.403 185.359 238.403 185.613C238.403 185.889 238.351 186.13 238.248 186.338C238.144 186.542 238.002 186.719 237.823 186.87C237.648 187.016 237.44 187.14 237.2 187.24C236.964 187.337 236.71 187.414 236.438 187.471C236.169 187.528 235.89 187.568 235.6 187.589C235.313 187.614 235.03 187.627 234.751 187.627C234.11 187.627 233.528 187.58 233.005 187.487C232.486 187.394 231.99 187.267 231.518 187.106V186.284C232.005 186.574 232.518 186.773 233.059 186.88C233.603 186.988 234.174 187.042 234.772 187.042C235.195 187.042 235.585 187.016 235.943 186.966C236.301 186.916 236.611 186.837 236.873 186.73C237.134 186.619 237.336 186.476 237.479 186.3C237.626 186.125 237.7 185.91 237.7 185.656C237.7 185.452 237.641 185.273 237.522 185.119C237.408 184.965 237.25 184.83 237.05 184.716C236.853 184.598 236.62 184.494 236.352 184.404C236.087 184.315 235.806 184.232 235.508 184.157C235.211 184.078 234.903 184.003 234.584 183.932C234.269 183.856 233.963 183.776 233.666 183.69C233.369 183.604 233.086 183.507 232.817 183.4C232.552 183.292 232.32 183.167 232.119 183.024C231.922 182.877 231.765 182.709 231.646 182.519C231.532 182.329 231.475 182.109 231.475 181.858C231.475 181.611 231.521 181.393 231.614 181.203C231.707 181.01 231.834 180.843 231.996 180.704C232.16 180.564 232.352 180.448 232.57 180.354C232.789 180.258 233.021 180.183 233.269 180.129C233.519 180.072 233.779 180.03 234.047 180.005C234.316 179.98 234.581 179.968 234.842 179.968C235.129 179.968 235.399 179.98 235.653 180.005C235.911 180.03 236.158 180.064 236.395 180.107C236.634 180.147 236.867 180.193 237.093 180.247C237.322 180.301 237.553 180.358 237.786 180.419V181.192ZM243.474 180.714V187.482H242.808V180.714H239.451V180.102H246.831V180.714H243.474ZM251.573 184.356V187.482H250.902V184.356L247.438 180.102H248.238L251.24 183.797L254.232 180.102H255.038L251.573 184.356ZM256.681 187.482V180.102H257.353V186.854H262.745V187.482H256.681ZM264.394 187.482V180.102H270.544V180.73H265.125V183.271H270.27V183.894H265.125V186.854H270.625V187.482H264.394Z" fill="#8E8E8E"/>
<defs>
<linearGradient id="paint0_linear_576_1932" x1="112.001" y1="85.1802" x2="226.287" y2="41.1294" gradientUnits="userSpaceOnUse">
<stop offset="0.00920691" stop-color="white"/>
<stop offset="0.2604" stop-color="#ACA7A9"/>
<stop offset="0.6677" stop-color="#484445"/>
<stop offset="0.852" stop-color="#2A2728"/>
</linearGradient>
<linearGradient id="paint1_linear_576_1932" x1="-2.8054" y1="231.866" x2="256.838" y2="180.286" gradientUnits="userSpaceOnUse">
<stop offset="0.00920691" stop-color="white"/>
<stop offset="0.2807" stop-color="#ACA7A9"/>
<stop offset="0.7208" stop-color="#484445"/>
<stop offset="0.92" stop-color="#2A2728"/>
</linearGradient>
<linearGradient id="paint2_linear_576_1932" x1="27.4544" y1="145.343" x2="299.239" y2="145.343" gradientUnits="userSpaceOnUse">
<stop stop-color="#A4A3A3"/>
<stop offset="0.1562" stop-color="#9B9B9A"/>
<stop offset="0.4277" stop-color="#858484"/>
<stop offset="0.7797" stop-color="#646363"/>
<stop offset="1" stop-color="#4D4E4D"/>
</linearGradient>
</defs>
</svg>
