<svg width="140" height="94" viewBox="0 0 140 94" fill="none" xmlns="http://www.w3.org/2000/svg">
<mask id="mask0_56_625" style="mask-type:luminance" maskUnits="userSpaceOnUse" x="18" y="52" width="102" height="25">
<path d="M36.4817 64.4876H38.8278V73.3739C37.7074 74.3505 36.4079 75.0965 35.0027 75.5698C33.5031 76.0861 31.9284 76.3465 30.3436 76.3403C28.1646 76.3718 26.0139 75.8413 24.0959 74.7993C22.2833 73.8149 20.7747 72.347 19.7353 70.5565C18.6955 68.7034 18.149 66.611 18.149 64.4824C18.149 62.3539 18.6955 60.2615 19.7353 58.4084C20.7743 56.6169 22.283 55.1481 24.0959 54.163C26.0246 53.12 28.1854 52.5897 30.3742 52.622C32.0274 52.6041 33.6697 52.8923 35.2194 53.4721C36.6458 54.0028 37.9275 54.8651 38.9604 55.989L37.4303 57.5531C35.6028 55.7348 33.2779 54.8256 30.4558 54.8256C28.6872 54.8 26.9414 55.2297 25.3837 56.0738C23.9058 56.8754 22.6765 58.0726 21.8314 59.5333C20.9872 61.0391 20.5436 62.739 20.5436 64.4683C20.5436 66.1976 20.9872 67.8975 21.8314 69.4033C22.6793 70.8564 23.9014 72.0518 25.3684 72.8628C26.9153 73.72 28.6573 74.1564 30.4227 74.129C32.8028 74.129 34.8191 73.5297 36.4715 72.3312L36.4817 64.4876ZM62.0923 74.0057V76.1348H45.7334V52.8377H61.5976V54.9617H48.179V63.2496H60.144V65.348H48.179V74.0006L62.0923 74.0057ZM71.5939 74.7891C69.78 73.8043 68.2705 72.3354 67.2307 70.5436C66.2024 68.6928 65.6624 66.6072 65.6624 64.4863C65.6624 62.3653 66.2024 60.2798 67.2307 58.4289C68.2716 56.64 69.781 55.1739 71.5939 54.1912C73.5091 53.1771 75.6399 52.6457 77.8037 52.6426C79.9675 52.6394 82.0998 53.1647 84.018 54.1733C85.8208 55.1631 87.3201 56.6314 88.3531 58.4187C89.3929 60.2718 89.9393 62.3642 89.9393 64.4927C89.9393 66.6213 89.3929 68.7136 88.3531 70.5668C87.3207 72.3538 85.8212 73.8214 84.018 74.8096C82.0998 75.8177 79.9677 76.3429 77.8041 76.3403C75.6404 76.3376 73.5096 75.8071 71.5939 74.7942V74.7891ZM82.7786 72.8911C84.2317 72.0832 85.4333 70.8846 86.2493 69.429C87.0725 67.9135 87.5039 66.2138 87.5039 64.4863C87.5039 62.7588 87.0725 61.0591 86.2493 59.5436C85.4324 58.0893 84.2309 56.8918 82.7786 56.0841C81.2502 55.2645 79.5452 54.8359 77.8136 54.8359C76.082 54.8359 74.377 55.2645 72.8486 56.0841C71.3875 56.8906 70.1758 58.0877 69.3473 59.5436C68.5128 61.0554 68.0749 62.7566 68.0749 64.4863C68.0749 66.216 68.5128 67.9172 69.3473 69.429C70.1749 70.8862 71.3867 72.0844 72.8486 72.8911C74.377 73.7106 76.082 74.1393 77.8136 74.1393C79.5452 74.1393 81.2502 73.7106 82.7786 72.8911ZM119.462 52.8377V76.1348H117.116V57.4966L108.027 73.1633H106.869L97.7834 57.5865V76.1246H95.4373V52.8377H97.4518L107.499 70.1147L117.445 52.8403L119.462 52.8377Z" fill="white"/>
</mask>
<g mask="url(#mask0_56_625)">
<path d="M140 14.6163H0V126.114H140V14.6163Z" fill="url(#paint0_linear_56_625)"/>
</g>
<path d="M25.5686 84.1966V80.4662H26.955C27.2689 80.4662 27.5388 80.5177 27.7646 80.6207C27.9903 80.7202 28.1632 80.8659 28.2831 81.0577C28.4066 81.246 28.4683 81.4752 28.4683 81.7452C28.4683 82.0081 28.4066 82.2355 28.2831 82.4273C28.1632 82.6156 27.9903 82.7613 27.7646 82.8643C27.5388 82.9674 27.2689 83.0189 26.955 83.0189H25.7856L25.9602 82.8324V84.1966H25.5686ZM25.9602 82.8643L25.7856 82.6725H26.9444C27.3148 82.6725 27.5952 82.5925 27.7857 82.4327C27.9797 82.2692 28.0767 82.0401 28.0767 81.7452C28.0767 81.4468 27.9797 81.2158 27.7857 81.0524C27.5952 80.889 27.3148 80.8073 26.9444 80.8073H25.7856L25.9602 80.6207V82.8643Z" fill="#8E8E8E"/>
<path d="M29.6642 82.1342H31.6221V82.47H29.6642V82.1342ZM29.7066 83.8556H31.9342V84.1966H29.315V80.4662H31.8549V80.8073H29.7066V83.8556Z" fill="#8E8E8E"/>
<path d="M32.8547 84.1966V80.4662H34.241C34.555 80.4662 34.8248 80.5177 35.0506 80.6207C35.2764 80.7202 35.4492 80.8659 35.5692 81.0577C35.6926 81.246 35.7544 81.4752 35.7544 81.7452C35.7544 82.0081 35.6926 82.2355 35.5692 82.4273C35.4492 82.6156 35.2764 82.7613 35.0506 82.8643C34.8248 82.9638 34.555 83.0136 34.241 83.0136H33.0716L33.2462 82.8324V84.1966H32.8547ZM35.384 84.1966L34.4315 82.843H34.8548L35.8126 84.1966H35.384ZM33.2462 82.8643L33.0716 82.6778H34.2304C34.6008 82.6778 34.8813 82.5961 35.0718 82.4327C35.2658 82.2692 35.3628 82.0401 35.3628 81.7452C35.3628 81.4468 35.2658 81.2158 35.0718 81.0524C34.8813 80.889 34.6008 80.8073 34.2304 80.8073H33.0716L33.2462 80.6207V82.8643Z" fill="#8E8E8E"/>
<path d="M37.0278 82.2728H38.9856V82.6139H37.0278V82.2728ZM37.0701 84.1966H36.6786V80.4662H39.2184V80.8073H37.0701V84.1966Z" fill="#8E8E8E"/>
<path d="M40.3763 82.1342H42.3341V82.47H40.3763V82.1342ZM40.4186 83.8556H42.6463V84.1966H40.027V80.4662H42.5669V80.8073H40.4186V83.8556Z" fill="#8E8E8E"/>
<path d="M45.165 84.2286C44.8863 84.2286 44.6288 84.1824 44.3924 84.0901C44.1561 83.9941 43.9515 83.8609 43.7786 83.6904C43.6058 83.5198 43.47 83.3191 43.3712 83.0882C43.2759 82.8572 43.2283 82.605 43.2283 82.3314C43.2283 82.0578 43.2759 81.8056 43.3712 81.5747C43.47 81.3437 43.6058 81.143 43.7786 80.9725C43.955 80.8019 44.1614 80.6705 44.3977 80.5781C44.6341 80.4822 44.8916 80.4342 45.1703 80.4342C45.4384 80.4342 45.6906 80.4804 45.927 80.5728C46.1633 80.6616 46.3626 80.7966 46.5249 80.9778L46.2762 81.2283C46.1245 81.0719 45.9569 80.96 45.7735 80.8925C45.5901 80.8215 45.3925 80.7859 45.1809 80.7859C44.9586 80.7859 44.7523 80.825 44.5618 80.9032C44.3713 80.9778 44.2055 81.0861 44.0644 81.2283C43.9233 81.3668 43.8121 81.5303 43.731 81.7185C43.6534 81.9033 43.6146 82.1076 43.6146 82.3314C43.6146 82.5552 43.6534 82.7613 43.731 82.9496C43.8121 83.1344 43.9233 83.2978 44.0644 83.4399C44.2055 83.5785 44.3713 83.6868 44.5618 83.765C44.7523 83.8396 44.9586 83.8769 45.1809 83.8769C45.3925 83.8769 45.5901 83.8414 45.7735 83.7703C45.9569 83.6992 46.1245 83.5856 46.2762 83.4292L46.5249 83.6797C46.3626 83.8609 46.1633 83.9977 45.927 84.0901C45.6906 84.1824 45.4366 84.2286 45.165 84.2286Z" fill="#8E8E8E"/>
<path d="M48.0327 84.1966V80.8073H46.7311V80.4662H49.726V80.8073H48.4243V84.1966H48.0327Z" fill="#8E8E8E"/>
<path d="M51.7364 84.1966V80.4662H52.128V83.8556H54.2022V84.1966H51.7364Z" fill="#8E8E8E"/>
<path d="M54.8524 84.1966V80.4662H55.2439V84.1966H54.8524Z" fill="#8E8E8E"/>
<path d="M56.4491 84.1966V80.4662H56.7719L59.3277 83.7064H59.1583V80.4662H59.5446V84.1966H59.2218L56.6714 80.9565H56.8407V84.1966H56.4491Z" fill="#8E8E8E"/>
<path d="M61.1028 82.1342H63.0606V82.47H61.1028V82.1342ZM61.1451 83.8556H63.3728V84.1966H60.7536V80.4662H63.2935V80.8073H61.1451V83.8556Z" fill="#8E8E8E"/>
<path d="M65.3145 84.2286C65.0394 84.2286 64.7748 84.1842 64.5208 84.0954C64.2703 84.003 64.0763 83.8858 63.9387 83.7437L64.0922 83.4399C64.2227 83.5678 64.3973 83.6762 64.616 83.765C64.8383 83.8502 65.0711 83.8929 65.3145 83.8929C65.5473 83.8929 65.7361 83.8645 65.8807 83.8076C66.0289 83.7472 66.1364 83.6673 66.2035 83.5678C66.274 83.4683 66.3093 83.3582 66.3093 83.2374C66.3093 83.0917 66.267 82.9745 66.1823 82.8857C66.1012 82.7968 65.9936 82.7276 65.8595 82.6778C65.7255 82.6245 65.5773 82.5783 65.415 82.5393C65.2528 82.5002 65.0905 82.4593 64.9282 82.4167C64.766 82.3705 64.616 82.3101 64.4785 82.2355C64.3444 82.1609 64.2351 82.0632 64.1504 81.9424C64.0693 81.818 64.0287 81.6564 64.0287 81.4574C64.0287 81.2727 64.0763 81.1039 64.1716 80.9511C64.2703 80.7948 64.4203 80.6705 64.6213 80.5781C64.8224 80.4822 65.0799 80.4342 65.3939 80.4342C65.602 80.4342 65.8084 80.4644 66.013 80.5248C66.2176 80.5816 66.394 80.6616 66.5421 80.7646L66.4098 81.079C66.2511 80.9725 66.0818 80.8943 65.9019 80.8446C65.7255 80.7948 65.5544 80.7699 65.3886 80.7699C65.1663 80.7699 64.9829 80.8001 64.8383 80.8605C64.6936 80.9209 64.5861 81.0027 64.5155 81.1057C64.4485 81.2052 64.415 81.3189 64.415 81.4468C64.415 81.5924 64.4555 81.7097 64.5367 81.7985C64.6213 81.8873 64.7307 81.9566 64.8647 82.0063C65.0023 82.0561 65.1522 82.1005 65.3145 82.1396C65.4768 82.1786 65.6373 82.2213 65.796 82.2675C65.9583 82.3136 66.1065 82.374 66.2405 82.4487C66.3781 82.5197 66.4874 82.6156 66.5686 82.7364C66.6532 82.8572 66.6956 83.0153 66.6956 83.2107C66.6956 83.3919 66.6462 83.5607 66.5474 83.717C66.4486 83.8698 66.297 83.9941 66.0923 84.0901C65.8913 84.1824 65.632 84.2286 65.3145 84.2286Z" fill="#8E8E8E"/>
<path d="M69.2828 82.2728H71.2407V82.6139H69.2828V82.2728ZM69.3252 84.1966H68.9336V80.4662H71.4735V80.8073H69.3252V84.1966Z" fill="#8E8E8E"/>
<path d="M73.8548 84.2286C73.5761 84.2286 73.3168 84.1824 73.0769 84.0901C72.8406 83.9941 72.6342 83.8609 72.4578 83.6904C72.285 83.5163 72.1492 83.3155 72.0504 83.0882C71.9551 82.8572 71.9075 82.605 71.9075 82.3314C71.9075 82.0578 71.9551 81.8074 72.0504 81.58C72.1492 81.3491 72.285 81.1483 72.4578 80.9778C72.6342 80.8037 72.8406 80.6705 73.0769 80.5781C73.3133 80.4822 73.5726 80.4342 73.8548 80.4342C74.1334 80.4342 74.391 80.4822 74.6273 80.5781C74.8637 80.6705 75.0683 80.8019 75.2411 80.9725C75.4175 81.143 75.5533 81.3437 75.6486 81.5747C75.7473 81.8056 75.7967 82.0578 75.7967 82.3314C75.7967 82.605 75.7473 82.8572 75.6486 83.0882C75.5533 83.3191 75.4175 83.5198 75.2411 83.6904C75.0683 83.8609 74.8637 83.9941 74.6273 84.0901C74.391 84.1824 74.1334 84.2286 73.8548 84.2286ZM73.8548 83.8769C74.077 83.8769 74.2816 83.8396 74.4686 83.765C74.6591 83.6868 74.8231 83.5785 74.9607 83.4399C75.1018 83.2978 75.2111 83.1344 75.2887 82.9496C75.3664 82.7613 75.4052 82.5552 75.4052 82.3314C75.4052 82.1076 75.3664 81.9033 75.2887 81.7185C75.2111 81.5303 75.1018 81.3668 74.9607 81.2283C74.8231 81.0861 74.6591 80.9778 74.4686 80.9032C74.2816 80.825 74.077 80.7859 73.8548 80.7859C73.6325 80.7859 73.4262 80.825 73.2357 80.9032C73.0452 80.9778 72.8794 81.0861 72.7383 81.2283C72.6007 81.3668 72.4913 81.5303 72.4102 81.7185C72.3326 81.9033 72.2938 82.1076 72.2938 82.3314C72.2938 82.5517 72.3326 82.756 72.4102 82.9443C72.4913 83.1326 72.6007 83.2978 72.7383 83.4399C72.8794 83.5785 73.0452 83.6868 73.2357 83.765C73.4262 83.8396 73.6325 83.8769 73.8548 83.8769Z" fill="#8E8E8E"/>
<path d="M76.6744 84.1966V80.4662H78.0608C78.3747 80.4662 78.6446 80.5177 78.8703 80.6207C79.0961 80.7202 79.269 80.8659 79.3889 81.0577C79.5124 81.246 79.5741 81.4752 79.5741 81.7452C79.5741 82.0081 79.5124 82.2355 79.3889 82.4273C79.269 82.6156 79.0961 82.7613 78.8703 82.8643C78.6446 82.9638 78.3747 83.0136 78.0608 83.0136H76.8913L77.066 82.8324V84.1966H76.6744ZM79.2037 84.1966L78.2512 82.843H78.6746L79.6323 84.1966H79.2037ZM77.066 82.8643L76.8913 82.6778H78.0502C78.4206 82.6778 78.701 82.5961 78.8915 82.4327C79.0855 82.2692 79.1825 82.0401 79.1825 81.7452C79.1825 81.4468 79.0855 81.2158 78.8915 81.0524C78.701 80.889 78.4206 80.8073 78.0502 80.8073H76.8913L77.066 80.6207V82.8643Z" fill="#8E8E8E"/>
<path d="M82.7668 84.1966V82.811L82.8568 83.0562L81.2852 80.4662H81.7033L83.0843 82.7418H82.8621L84.2431 80.4662H84.6347L83.0632 83.0562L83.1531 82.811V84.1966H82.7668Z" fill="#8E8E8E"/>
<path d="M86.701 84.2286C86.4223 84.2286 86.163 84.1824 85.9231 84.0901C85.6868 83.9941 85.4804 83.8609 85.304 83.6904C85.1312 83.5163 84.9954 83.3155 84.8966 83.0882C84.8013 82.8572 84.7537 82.605 84.7537 82.3314C84.7537 82.0578 84.8013 81.8074 84.8966 81.58C84.9954 81.3491 85.1312 81.1483 85.304 80.9778C85.4804 80.8037 85.6868 80.6705 85.9231 80.5781C86.1595 80.4822 86.4188 80.4342 86.701 80.4342C86.9797 80.4342 87.2372 80.4822 87.4735 80.5781C87.7099 80.6705 87.9145 80.8019 88.0873 80.9725C88.2637 81.143 88.3995 81.3437 88.4948 81.5747C88.5935 81.8056 88.6429 82.0578 88.6429 82.3314C88.6429 82.605 88.5935 82.8572 88.4948 83.0882C88.3995 83.3191 88.2637 83.5198 88.0873 83.6904C87.9145 83.8609 87.7099 83.9941 87.4735 84.0901C87.2372 84.1824 86.9797 84.2286 86.701 84.2286ZM86.701 83.8769C86.9232 83.8769 87.1278 83.8396 87.3148 83.765C87.5053 83.6868 87.6693 83.5785 87.8069 83.4399C87.948 83.2978 88.0573 83.1344 88.135 82.9496C88.2126 82.7613 88.2514 82.5552 88.2514 82.3314C88.2514 82.1076 88.2126 81.9033 88.135 81.7185C88.0573 81.5303 87.948 81.3668 87.8069 81.2283C87.6693 81.0861 87.5053 80.9778 87.3148 80.9032C87.1278 80.825 86.9232 80.7859 86.701 80.7859C86.4787 80.7859 86.2724 80.825 86.0819 80.9032C85.8914 80.9778 85.7256 81.0861 85.5845 81.2283C85.4469 81.3668 85.3375 81.5303 85.2564 81.7185C85.1788 81.9033 85.14 82.1076 85.14 82.3314C85.14 82.5517 85.1788 82.756 85.2564 82.9443C85.3375 83.1326 85.4469 83.2978 85.5845 83.4399C85.7256 83.5785 85.8914 83.6868 86.0819 83.765C86.2724 83.8396 86.4787 83.8769 86.701 83.8769Z" fill="#8E8E8E"/>
<path d="M91.0128 84.2286C90.5401 84.2286 90.1679 84.0918 89.8963 83.8183C89.6247 83.5447 89.4889 83.1397 89.4889 82.6032V80.4662H89.8804V82.5872C89.8804 83.0278 89.9792 83.3528 90.1767 83.5625C90.3743 83.7721 90.653 83.8769 91.0128 83.8769C91.3761 83.8769 91.6566 83.7721 91.8541 83.5625C92.0517 83.3528 92.1504 83.0278 92.1504 82.5872V80.4662H92.5314V82.6032C92.5314 83.1397 92.3956 83.5447 92.124 83.8183C91.8559 84.0918 91.4855 84.2286 91.0128 84.2286Z" fill="#8E8E8E"/>
<path d="M93.7114 84.1966V80.4662H95.0977C95.4117 80.4662 95.6816 80.5177 95.9073 80.6207C96.1331 80.7202 96.306 80.8659 96.4259 81.0577C96.5494 81.246 96.6111 81.4752 96.6111 81.7452C96.6111 82.0081 96.5494 82.2355 96.4259 82.4273C96.306 82.6156 96.1331 82.7613 95.9073 82.8643C95.6816 82.9638 95.4117 83.0136 95.0977 83.0136H93.9283L94.1029 82.8324V84.1966H93.7114ZM96.2407 84.1966L95.2882 82.843H95.7116L96.6693 84.1966H96.2407ZM94.1029 82.8643L93.9283 82.6778H95.0872C95.4576 82.6778 95.738 82.5961 95.9285 82.4327C96.1225 82.2692 96.2195 82.0401 96.2195 81.7452C96.2195 81.4468 96.1225 81.2158 95.9285 81.0524C95.738 80.889 95.4576 80.8073 95.0872 80.8073H93.9283L94.1029 80.6207V82.8643Z" fill="#8E8E8E"/>
<path d="M99.9414 84.2286C99.6662 84.2286 99.4017 84.1842 99.1477 84.0954C98.8972 84.003 98.7032 83.8858 98.5656 83.7437L98.7191 83.4399C98.8496 83.5678 99.0242 83.6762 99.2429 83.765C99.4652 83.8502 99.698 83.8929 99.9414 83.8929C100.174 83.8929 100.363 83.8645 100.508 83.8076C100.656 83.7472 100.763 83.6673 100.83 83.5678C100.901 83.4683 100.936 83.3582 100.936 83.2374C100.936 83.0917 100.894 82.9745 100.809 82.8857C100.728 82.7968 100.62 82.7276 100.486 82.6778C100.352 82.6245 100.204 82.5783 100.042 82.5393C99.8797 82.5002 99.7174 82.4593 99.5551 82.4167C99.3928 82.3705 99.2429 82.3101 99.1053 82.2355C98.9713 82.1609 98.8619 82.0632 98.7773 81.9424C98.6961 81.818 98.6556 81.6564 98.6556 81.4574C98.6556 81.2727 98.7032 81.1039 98.7984 80.9511C98.8972 80.7948 99.0471 80.6705 99.2482 80.5781C99.4493 80.4822 99.7068 80.4342 100.021 80.4342C100.229 80.4342 100.435 80.4644 100.64 80.5248C100.844 80.5816 101.021 80.6616 101.169 80.7646L101.037 81.079C100.878 80.9725 100.709 80.8943 100.529 80.8446C100.352 80.7948 100.181 80.7699 100.015 80.7699C99.7932 80.7699 99.6098 80.8001 99.4652 80.8605C99.3205 80.9209 99.2129 81.0027 99.1424 81.1057C99.0754 81.2052 99.0418 81.3189 99.0418 81.4468C99.0418 81.5924 99.0824 81.7097 99.1636 81.7985C99.2482 81.8873 99.3576 81.9566 99.4916 82.0063C99.6292 82.0561 99.7791 82.1005 99.9414 82.1396C100.104 82.1786 100.264 82.2213 100.423 82.2675C100.585 82.3136 100.733 82.374 100.867 82.4487C101.005 82.5197 101.114 82.6156 101.195 82.7364C101.28 82.8572 101.322 83.0153 101.322 83.2107C101.322 83.3919 101.273 83.5607 101.174 83.717C101.076 83.8698 100.924 83.9941 100.719 84.0901C100.518 84.1824 100.259 84.2286 99.9414 84.2286Z" fill="#8E8E8E"/>
<path d="M102.844 84.1966V80.8073H101.542V80.4662H104.537V80.8073H103.235V84.1966H102.844Z" fill="#8E8E8E"/>
<path d="M106.02 84.1966V82.811L106.11 83.0562L104.539 80.4662H104.957L106.338 82.7418H106.115L107.497 80.4662H107.888L106.317 83.0562L106.406 82.811V84.1966H106.02Z" fill="#8E8E8E"/>
<path d="M108.418 84.1966V80.4662H108.809V83.8556H110.884V84.1966H108.418Z" fill="#8E8E8E"/>
<path d="M111.883 82.1342H113.841V82.47H111.883V82.1342ZM111.925 83.8556H114.153V84.1966H111.534V80.4662H114.074V80.8073H111.925V83.8556Z" fill="#8E8E8E"/>
<path d="M54.1971 25.4673L52.2182 23.8852L70 0L102.787 44.0259L100.746 45.5361L70 4.24541L54.1971 25.4673ZM129.195 79.4891L127.155 80.9992L134.938 91.4522H5.05938L16.1854 76.5124L14.204 74.9252L0 94H140L129.195 79.4891Z" fill="url(#paint1_linear_56_625)"/>
<defs>
<linearGradient id="paint0_linear_56_625" x1="0" y1="70.3666" x2="140" y2="70.3666" gradientUnits="userSpaceOnUse">
<stop stop-color="#818181"/>
<stop offset="1" stop-color="#292929"/>
</linearGradient>
<linearGradient id="paint1_linear_56_625" x1="11.5" y1="49.5" x2="140" y2="85.5" gradientUnits="userSpaceOnUse">
<stop stop-color="white"/>
<stop offset="0.316202" stop-color="#CFCDCE"/>
<stop offset="0.650443" stop-color="#535051"/>
<stop offset="0.95" stop-color="#0F0F0F"/>
</linearGradient>
</defs>
</svg>
