<svg width="80" height="54" viewBox="0 0 80 54" fill="none" xmlns="http://www.w3.org/2000/svg">
<g clip-path="url(#clip0_594_1949)">
<path d="M29.0441 17.0458L27.9247 16.1359L39.5852 0L58.1252 25.2148L56.9713 26.0803L39.5852 2.43123L29.0441 17.0458Z" fill="url(#paint0_linear_594_1949)"/>
<path d="M73.0603 45.5253L71.9063 46.3908L76.3077 52.3752H2.86027L9.15288 43.8215L8.03096 42.9116L0 53.8349H79.1704L73.0603 45.5253Z" fill="url(#paint1_linear_594_1949)"/>
<mask id="mask0_594_1949" style="mask-type:luminance" maskUnits="userSpaceOnUse" x="10" y="31" width="58" height="12">
<path d="M17.8742 31.5591C18.3575 31.5591 18.8112 31.5838 19.2279 31.6306C19.6471 31.6799 20.0466 31.749 20.4287 31.8377C20.8109 31.9265 21.1833 32.035 21.5457 32.1583C21.9082 32.2816 22.2731 32.4221 22.6405 32.575V33.7388C22.3496 33.5564 22.0389 33.3813 21.7109 33.2186C21.383 33.0558 21.0279 32.9128 20.6457 32.7895C20.2635 32.6662 19.8567 32.5701 19.4203 32.4986C18.9838 32.4271 18.5153 32.3925 18.0148 32.3925C16.994 32.3925 16.1013 32.4986 15.3419 32.7131C14.58 32.9276 13.9487 33.2334 13.4433 33.6303C12.9378 34.0273 12.5605 34.5131 12.3066 35.0851C12.055 35.6572 11.9268 36.2983 11.9268 37.0134C11.9268 37.6816 12.0501 38.298 12.2992 38.8627C12.5482 39.4273 12.923 39.9131 13.426 40.3199C13.929 40.7292 14.5578 41.0473 15.3148 41.2766C16.0718 41.506 16.957 41.6218 17.9729 41.6218C18.3698 41.6218 18.7668 41.6071 19.1564 41.575C19.546 41.5454 19.9159 41.506 20.2635 41.4566C20.6112 41.4073 20.9268 41.3555 21.2129 41.2964C21.4989 41.2372 21.7405 41.178 21.9403 41.1164V37.9257H17.6622V37.0306H22.897V41.6539C22.5197 41.787 22.1375 41.9029 21.7529 42.0065C21.3682 42.1101 20.9687 42.1939 20.5594 42.2629C20.1501 42.332 19.7235 42.3838 19.2822 42.4207C18.8408 42.4553 18.3772 42.475 17.894 42.475C16.9052 42.475 15.9855 42.364 15.1397 42.1421C14.2915 41.9202 13.5592 41.5824 12.9403 41.1312C12.3213 40.6799 11.8356 40.1128 11.483 39.4273C11.1304 38.7443 10.9553 37.9405 10.9553 37.0158C10.9553 36.3994 11.0367 35.8372 11.1994 35.3292C11.3622 34.8213 11.594 34.3651 11.8923 33.9583C12.1907 33.5514 12.5507 33.1988 12.9723 32.898C13.394 32.5972 13.86 32.3481 14.3729 32.1509C14.8857 31.9536 15.4381 31.8057 16.0298 31.707C16.6142 31.6084 17.2307 31.5591 17.8742 31.5591ZM25.9496 42.2654V31.749H34.7129V32.644H26.9901V36.2638H34.3208V37.1366H26.9901V41.3679H34.8263V42.2629H25.9496V42.2654ZM50.3926 37.0158C50.3926 37.9602 50.2225 38.7739 49.8797 39.4618C49.5395 40.1473 49.0685 40.7144 48.4718 41.1607C47.8751 41.607 47.1723 41.9375 46.3611 42.152C45.5499 42.3665 44.677 42.4725 43.7375 42.4725C42.7932 42.4725 41.9153 42.3665 41.0992 42.152C40.283 41.9375 39.5753 41.607 38.9712 41.1607C38.3696 40.7144 37.8986 40.1473 37.5559 39.4618C37.2132 38.7764 37.043 37.9602 37.043 37.0158C37.043 36.387 37.1219 35.8175 37.2797 35.3046C37.4375 34.7917 37.6595 34.3331 37.9455 33.9262C38.2315 33.5218 38.5767 33.1692 38.9836 32.8734C39.388 32.5775 39.8392 32.3309 40.3373 32.1336C40.8353 31.9364 41.3679 31.7909 41.94 31.6972C42.5121 31.6035 43.1112 31.5566 43.7375 31.5566C44.677 31.5566 45.5499 31.6627 46.3611 31.8772C47.1723 32.0917 47.8751 32.4221 48.4718 32.8684C49.0685 33.3147 49.537 33.8818 49.8797 34.5673C50.2225 35.2553 50.3926 36.0714 50.3926 37.0158ZM49.4137 37.0158C49.4137 36.2712 49.2929 35.6128 49.0512 35.0407C48.8096 34.4687 48.4496 33.9879 47.9762 33.5983C47.5003 33.2087 46.911 32.9128 46.2033 32.7106C45.4956 32.5084 44.6745 32.4073 43.7425 32.4073C42.8104 32.4073 41.9844 32.5084 41.2718 32.7131C40.5592 32.9177 39.9625 33.2136 39.4841 33.6057C39.0058 33.9977 38.6408 34.4786 38.3967 35.0531C38.1526 35.6276 38.0293 36.281 38.0293 37.0158C38.0293 37.7605 38.1526 38.4188 38.3967 38.9909C38.6408 39.5629 39.0033 40.0438 39.4841 40.4334C39.9649 40.8229 40.5592 41.1188 41.2718 41.321C41.9844 41.5232 42.8079 41.6243 43.7425 41.6243C44.677 41.6243 45.4981 41.5232 46.2033 41.321C46.911 41.1188 47.5003 40.8229 47.9762 40.4334C48.4496 40.0438 48.8096 39.5629 49.0512 38.9909C49.2929 38.4188 49.4137 37.7605 49.4137 37.0158ZM66.5704 42.2654V33.3197L60.7932 42.2654H59.9425L54.1578 33.2802V42.2654H53.2011V31.749H54.2269L60.3962 41.2766L66.4964 31.749H67.5148V42.2654H66.5704Z" fill="white"/>
</mask>
<g mask="url(#mask0_594_1949)">
<path d="M73.7828 15.0952H6.76855V56.5791H73.7828V15.0952Z" fill="url(#paint2_linear_594_1949)"/>
</g>
</g>
<defs>
<linearGradient id="paint0_linear_594_1949" x1="27.6167" y1="21.0033" x2="55.7968" y2="10.1415" gradientUnits="userSpaceOnUse">
<stop offset="0.00920691" stop-color="white"/>
<stop offset="0.2604" stop-color="#ACA7A9"/>
<stop offset="0.6677" stop-color="#484445"/>
<stop offset="0.852" stop-color="#2A2728"/>
</linearGradient>
<linearGradient id="paint1_linear_594_1949" x1="-0.691743" y1="57.1726" x2="63.3299" y2="44.4542" gradientUnits="userSpaceOnUse">
<stop offset="0.00920691" stop-color="white"/>
<stop offset="0.2807" stop-color="#ACA7A9"/>
<stop offset="0.7208" stop-color="#484445"/>
<stop offset="0.92" stop-color="#2A2728"/>
</linearGradient>
<linearGradient id="paint2_linear_594_1949" x1="6.76964" y1="35.8379" x2="73.785" y2="35.8379" gradientUnits="userSpaceOnUse">
<stop stop-color="#A4A3A3"/>
<stop offset="0.1562" stop-color="#9B9B9A"/>
<stop offset="0.4277" stop-color="#858484"/>
<stop offset="0.7797" stop-color="#646363"/>
<stop offset="1" stop-color="#4D4E4D"/>
</linearGradient>
<clipPath id="clip0_594_1949">
<rect width="79.3973" height="54" fill="white"/>
</clipPath>
</defs>
</svg>
