<svg width="40" height="40" viewBox="0 0 40 40" fill="none" xmlns="http://www.w3.org/2000/svg">
<path d="M11.2536 10.0005C11.0054 10.0006 10.7629 10.0747 10.557 10.2134C10.3511 10.3521 10.1912 10.549 10.0978 10.7791C10.0044 11.0091 9.98172 11.2618 10.0326 11.5048C10.0835 11.7478 10.2057 11.9701 10.3836 12.1432L18.2356 19.9973L10.3836 27.8514C10.2639 27.9664 10.1683 28.1042 10.1024 28.2566C10.0365 28.409 10.0018 28.5731 10.0001 28.7391C9.99838 28.9051 10.0298 29.0699 10.0926 29.2236C10.1553 29.3773 10.2481 29.517 10.3655 29.6344C10.4829 29.7518 10.6225 29.8446 10.7762 29.9074C10.9299 29.9702 11.0946 30.0016 11.2606 29.9999C11.4266 29.9982 11.5906 29.9634 11.7429 29.8976C11.8953 29.8317 12.033 29.736 12.148 29.6163L20 21.7622L27.852 29.6163C27.967 29.736 28.1047 29.8317 28.2571 29.8976C28.4094 29.9634 28.5734 29.9982 28.7394 29.9999C28.9054 30.0016 29.0701 29.9702 29.2238 29.9074C29.3775 29.8446 29.5171 29.7518 29.6345 29.6344C29.7519 29.517 29.8447 29.3773 29.9074 29.2236C29.9702 29.0699 30.0016 28.9051 29.9999 28.7391C29.9982 28.5731 29.9635 28.409 29.8976 28.2566C29.8317 28.1042 29.7361 27.9664 29.6164 27.8514L21.7644 19.9973L29.6164 12.1432C29.7967 11.9679 29.9198 11.7422 29.9697 11.4957C30.0195 11.2492 29.9938 10.9933 29.8958 10.7617C29.7978 10.5301 29.6321 10.3335 29.4205 10.1977C29.2089 10.0618 28.9611 9.99313 28.7098 10.0005C28.3856 10.0102 28.078 10.1457 27.852 10.3784L20 18.2325L12.148 10.3784C12.0317 10.2588 11.8927 10.1638 11.7391 10.0989C11.5854 10.034 11.4204 10.0006 11.2536 10.0005Z" />
</svg>
