<svg width="30" height="30" viewBox="0 0 30 30"  xmlns="http://www.w3.org/2000/svg">
<path d="M10.1111 4C6.74144 4 4 6.74144 4 10.1111V19.8889C4 23.2586 6.74144 26 10.1111 26H19.8889C23.2586 26 26 23.2586 26 19.8889V10.1111C26 6.74144 23.2586 4 19.8889 4H10.1111ZM10.1111 6.44444H19.8889C21.9104 6.44444 23.5556 8.08956 23.5556 10.1111V19.8889C23.5556 21.9104 21.9104 23.5556 19.8889 23.5556H10.1111C8.08956 23.5556 6.44444 21.9104 6.44444 19.8889V10.1111C6.44444 8.08956 8.08956 6.44444 10.1111 6.44444ZM21.1111 7.66667C20.787 7.66667 20.4761 7.79544 20.2469 8.02465C20.0177 8.25386 19.8889 8.56474 19.8889 8.88889C19.8889 9.21304 20.0177 9.52392 20.2469 9.75313C20.4761 9.98234 20.787 10.1111 21.1111 10.1111C21.4353 10.1111 21.7461 9.98234 21.9754 9.75313C22.2046 9.52392 22.3333 9.21304 22.3333 8.88889C22.3333 8.56474 22.2046 8.25386 21.9754 8.02465C21.7461 7.79544 21.4353 7.66667 21.1111 7.66667ZM15 8.88889C11.6303 8.88889 8.88889 11.6303 8.88889 15C8.88889 18.3697 11.6303 21.1111 15 21.1111C18.3697 21.1111 21.1111 18.3697 21.1111 15C21.1111 11.6303 18.3697 8.88889 15 8.88889ZM15 11.3333C17.0216 11.3333 18.6667 12.9784 18.6667 15C18.6667 17.0216 17.0216 18.6667 15 18.6667C12.9784 18.6667 11.3333 17.0216 11.3333 15C11.3333 12.9784 12.9784 11.3333 15 11.3333Z" />
</svg>
