<svg width="30" height="21" viewBox="0 0 30 21" fill="none" xmlns="http://www.w3.org/2000/svg">
<path d="M1.5192 0.000150009C1.32072 -0.00266102 1.12365 0.0340604 0.939461 0.10818C0.755271 0.1823 0.587628 0.292339 0.446275 0.431904C0.304922 0.571468 0.192677 0.737775 0.116065 0.921158C0.0394525 1.10454 0 1.30134 0 1.50013C0 1.69891 0.0394525 1.89572 0.116065 2.0791C0.192677 2.26248 0.304922 2.42879 0.446275 2.56835C0.587628 2.70792 0.755271 2.81796 0.939461 2.89208C1.12365 2.9662 1.32072 3.00292 1.5192 3.00011H28.4808C28.6793 3.00292 28.8764 2.9662 29.0605 2.89208C29.2447 2.81796 29.4124 2.70792 29.5537 2.56835C29.6951 2.42879 29.8073 2.26248 29.8839 2.0791C29.9606 1.89572 30 1.69891 30 1.50013C30 1.30134 29.9606 1.10454 29.8839 0.921158C29.8073 0.737775 29.6951 0.571468 29.5537 0.431904C29.4124 0.292339 29.2447 0.1823 29.0605 0.10818C28.8764 0.0340604 28.6793 -0.00266102 28.4808 0.000150009H1.5192ZM1.5192 9.00002C1.32072 8.99721 1.12365 9.03393 0.939461 9.10805C0.755271 9.18217 0.587628 9.29221 0.446275 9.43178C0.304922 9.57134 0.192677 9.73765 0.116065 9.92103C0.0394525 10.1044 0 10.3012 0 10.5C0 10.6988 0.0394525 10.8956 0.116065 11.079C0.192677 11.2624 0.304922 11.4287 0.446275 11.5682C0.587628 11.7078 0.755271 11.8178 0.939461 11.8919C1.12365 11.9661 1.32072 12.0028 1.5192 12H28.4808C28.6793 12.0028 28.8764 11.9661 29.0605 11.8919C29.2447 11.8178 29.4124 11.7078 29.5537 11.5682C29.6951 11.4287 29.8073 11.2624 29.8839 11.079C29.9606 10.8956 30 10.6988 30 10.5C30 10.3012 29.9606 10.1044 29.8839 9.92103C29.8073 9.73765 29.6951 9.57134 29.5537 9.43178C29.4124 9.29221 29.2447 9.18217 29.0605 9.10805C28.8764 9.03393 28.6793 8.99721 28.4808 9.00002H1.5192ZM1.5192 17.9999C1.32072 17.9971 1.12365 18.0338 0.939461 18.1079C0.755271 18.182 0.587628 18.2921 0.446275 18.4316C0.304922 18.5712 0.192677 18.7375 0.116065 18.9209C0.0394525 19.1043 0 19.3011 0 19.4999C0 19.6987 0.0394525 19.8955 0.116065 20.0788C0.192677 20.2622 0.304922 20.4285 0.446275 20.5681C0.587628 20.7077 0.755271 20.8177 0.939461 20.8918C1.12365 20.9659 1.32072 21.0027 1.5192 20.9998H28.4808C28.6793 21.0027 28.8764 20.9659 29.0605 20.8918C29.2447 20.8177 29.4124 20.7077 29.5537 20.5681C29.6951 20.4285 29.8073 20.2622 29.8839 20.0788C29.9606 19.8955 30 19.6987 30 19.4999C30 19.3011 29.9606 19.1043 29.8839 18.9209C29.8073 18.7375 29.6951 18.5712 29.5537 18.4316C29.4124 18.2921 29.2447 18.182 29.0605 18.1079C28.8764 18.0338 28.6793 17.9971 28.4808 17.9999H1.5192Z" fill="#1E1E1E"/>
</svg>
