<svg width="30" height="30" viewBox="0 0 30 30" xmlns="http://www.w3.org/2000/svg">
<path d="M8.25 1C7.02832 1 6 1.98438 6 3.15385V26.9808C6 28.0998 6.94043 29 8.10938 29H21.8906C23.0596 29 24 28.0998 24 26.9808V3.15385C24 1.98438 22.9717 1 21.75 1H8.25ZM8.25 3.15385H21.75V22.1538H8.25V3.15385ZM15 24.2308C15.6196 24.2308 16.125 24.7145 16.125 25.3077C16.125 25.9008 15.6196 26.3846 15 26.3846C14.3804 26.3846 13.875 25.9008 13.875 25.3077C13.875 24.7145 14.3804 24.2308 15 24.2308Z" fill=""/>
</svg>
