<svg width="30" height="30" viewBox="0 0 30 30"  xmlns="http://www.w3.org/2000/svg">
<path d="M25.7915 3.00209C25.4158 3.01814 25.071 3.12425 24.7681 3.24147C24.4883 3.34968 23.4835 3.7644 21.8834 4.42341C20.2833 5.08242 18.1631 5.95618 15.9031 6.88952C11.3832 8.7562 6.30398 10.856 3.70139 11.9315C3.61201 11.968 3.24904 12.0771 2.84816 12.3778C2.44634 12.6792 2 13.3332 2 14.0485C2 14.6255 2.29334 15.2131 2.64754 15.5496C3.00175 15.886 3.36073 16.0433 3.66076 16.1605C4.53849 16.5037 7.25083 17.5674 8.42973 18.0307C8.84272 19.246 9.81272 22.1087 10.0397 22.8133H10.0372C10.2218 23.3868 10.4018 23.7605 10.6517 24.0725C10.7767 24.2285 10.9258 24.3698 11.1088 24.4814C11.179 24.5243 11.2567 24.5575 11.3348 24.5887C11.3457 24.5932 11.3569 24.5943 11.3678 24.5986L11.3373 24.5912C11.36 24.6001 11.3803 24.6133 11.4033 24.6211C11.4409 24.6338 11.467 24.6334 11.5176 24.6435C11.6957 24.6973 11.8736 24.7333 12.0382 24.7333C12.745 24.7333 13.1784 24.3568 13.1784 24.3568L13.2063 24.3368L16.2587 21.8009L19.9966 25.1946C20.0635 25.2873 20.5979 26 21.8377 26C22.5763 26 23.1629 25.6435 23.5365 25.2669C23.9102 24.8903 24.1429 24.505 24.2476 23.9827V23.9777V23.9752C24.3202 23.6045 27.9094 5.91455 27.9094 5.91455L27.9017 5.94447C28.0132 5.45633 28.046 4.98427 27.9144 4.5032C27.7829 4.02214 27.4278 3.55267 27.0003 3.3063C26.5727 3.05994 26.1672 2.98604 25.7915 3.00209ZM25.2786 5.79735C25.1375 6.49238 21.9436 22.249 21.7361 23.2945L18.0235 19.9257C17.0666 19.057 15.5743 19.0264 14.5801 19.8509L12.6857 21.4244L13.6964 17.5444C13.6964 17.5444 20.6686 10.6143 21.0886 10.2109C21.4266 9.88791 21.4974 9.77468 21.4974 9.66233C21.4974 9.51296 21.4191 9.4055 21.2384 9.4055C21.0759 9.4055 20.8551 9.55842 20.7381 9.62992C19.2449 10.5441 12.8515 14.1219 9.75529 15.8513C9.63898 15.7829 9.52459 15.7119 9.39723 15.6618C8.38131 15.2625 6.42865 14.4938 5.28597 14.046C7.98285 12.9314 12.6058 11.0215 16.9113 9.24342C19.1709 8.31024 21.2905 7.43569 22.889 6.77731C24.2384 6.22156 24.9422 5.9338 25.2786 5.79735ZM21.6955 23.479H21.698L21.6955 23.489C21.6977 23.4781 21.694 23.4869 21.6955 23.479Z" />
</svg>
