<svg width="40" height="40" viewBox="0 0 40 40" fill="none" xmlns="http://www.w3.org/2000/svg">
<path d="M26.098 29.265L25.8351 29.6903C26.098 29.265 26.0979 29.265 26.0978 29.2649L26.0974 29.2646L26.0955 29.2635L26.088 29.2588L26.0585 29.2406L25.9433 29.1694L25.5057 28.8988C25.1285 28.6656 24.5894 28.3322 23.9416 27.9313C22.646 27.1296 20.9156 26.0582 19.1764 24.9794C17.4371 23.9005 15.6895 22.8145 14.3592 21.9834C13.694 21.5678 13.1338 21.2164 12.7315 20.9618C12.5302 20.8343 12.3696 20.7318 12.2554 20.6578C12.1884 20.6144 12.1466 20.5866 12.1232 20.571C12.1003 20.5558 12.0951 20.5523 12.1012 20.5575C11.9273 20.4107 11.8333 20.2059 11.8333 20C11.8333 19.8013 11.9181 19.6071 12.0767 19.4638L26.0994 10.7341L26.1294 10.7155L26.1564 10.6928C26.4956 10.4083 27.015 10.4441 27.3072 10.7643C27.4383 10.9083 27.4993 11.0793 27.4999 11.2472C27.4992 11.4382 27.4202 11.6335 27.2581 11.7817L14.3611 19.5695L13.6523 19.9975L14.3611 20.4255L27.2583 28.2133C27.5606 28.4896 27.5808 28.936 27.3072 29.2357C27.015 29.5559 26.4956 29.5917 26.1564 29.3072L26.1287 29.284L26.098 29.265Z" fill="#1E1E1E" stroke="#1E1E1E"/>
</svg>
