<svg width="40" height="40" viewBox="0 0 40 40" fill="none" xmlns="http://www.w3.org/2000/svg">
<circle cx="20" cy="20" r="20" transform="rotate(-180 20 20)" />
<path d="M13.9019 10.735L14.1648 10.3097C13.9019 10.735 13.902 10.735 13.9021 10.7351L13.9025 10.7354L13.9044 10.7365L13.9119 10.7412L13.9414 10.7594L14.0566 10.8306L14.4942 11.1012C14.8714 11.3344 15.4105 11.6678 16.0583 12.0687C17.3539 12.8704 19.0844 13.9418 20.8235 15.0206C22.5628 16.0995 24.3104 17.1855 25.6407 18.0166C26.3059 18.4322 26.8661 18.7836 27.2684 19.0382C27.4697 19.1657 27.6304 19.2682 27.7445 19.3422C27.8115 19.3856 27.8533 19.4134 27.8767 19.429C27.8996 19.4442 27.9048 19.4477 27.8987 19.4425C28.0726 19.5893 28.1667 19.7941 28.1667 20C28.1667 20.1987 28.0818 20.3929 27.9232 20.5362L13.9005 29.2659L13.8705 29.2845L13.8435 29.3072C13.5043 29.5917 12.9849 29.5559 12.6927 29.2357C12.5616 29.0917 12.5006 28.9207 12.5 28.7528C12.5007 28.5618 12.5797 28.3665 12.7418 28.2183L25.6388 20.4305L26.3476 20.0025L25.6388 19.5745L12.7416 11.7867C12.4393 11.5104 12.4191 11.064 12.6927 10.7643C12.9849 10.4441 13.5043 10.4083 13.8435 10.6928L13.8712 10.716L13.9019 10.735Z" fill="#1E1E1E" stroke="#1E1E1E"/>
</svg>
