<svg width="30" height="30" viewBox="0 0 30 30"  xmlns="http://www.w3.org/2000/svg">
<path d="M12 1C6.58 1 2 5.39756 2 10.6035V15.0559C2 19.3658 3.27881 22.1722 5.90381 23.6029V26.5314C5.90381 27.5255 6.48461 28.4167 7.38086 28.8036C7.68586 28.9347 8.00693 29 8.32568 29C8.94318 29 9.5502 28.7584 10.0127 28.3014L13.7139 24.6619H17.5493C22.7606 24.6619 27 20.3522 27 15.0559V10.6035C27 5.30719 22.7593 1 17.5493 1H12ZM12 3.54568H17.5518C21.3843 3.54568 24.5024 6.71113 24.5024 10.6035V15.0559C24.5024 18.9496 21.383 22.1162 17.5518 22.1162H13.2109C12.8872 22.1162 12.5755 22.2438 12.3418 22.4742L8.40381 26.3474V22.7924C8.40381 22.2718 8.09023 21.8038 7.61523 21.6116C5.48898 20.7486 4.5 18.6657 4.5 15.0559V10.6035C4.5 6.84351 8.005 3.54568 12 3.54568ZM15.75 4.81852C15.405 4.81852 15.125 5.10364 15.125 5.45494C15.125 5.80624 15.405 6.09136 15.75 6.09136C19.4338 6.09136 22 9.4453 22 12.4556C22 12.8069 22.28 13.092 22.625 13.092C22.97 13.092 23.25 12.8069 23.25 12.4556C23.25 8.84324 20.17 4.81852 15.75 4.81852ZM9.50244 6.10379C9.20463 6.05813 8.88961 6.13012 8.63086 6.3325L7.896 6.90926C7.0285 7.58768 6.7517 8.78531 7.2417 9.77812C8.1642 11.6454 9.70992 14.5226 11.0137 15.747C12.6162 17.2541 15.134 19.0403 17.2515 19.9186C18.1777 20.303 19.2382 20.0324 19.8882 19.2598C20.1194 18.9849 20.3354 18.7051 20.5229 18.4518C20.9067 17.9325 20.7951 17.1966 20.2764 16.816L17.9375 15.1032C17.435 14.7353 16.733 14.8367 16.3555 15.3344L15.9624 15.7769C15.7024 16.0696 15.3109 16.2237 14.9297 16.1448C14.3347 16.0226 13.3915 15.627 12.3027 14.4394C11.404 13.4619 10.8996 12.4216 10.7158 11.6973C10.6058 11.2646 10.7579 10.8128 11.0967 10.5264L11.4897 10.1933C11.9485 9.80634 12.0386 9.12842 11.6948 8.63456L10.269 6.58359C10.0815 6.31311 9.80025 6.14945 9.50244 6.10379ZM15.75 7.3642C15.405 7.3642 15.125 7.64932 15.125 8.00062C15.125 8.35192 15.405 8.63704 15.75 8.63704C17.6425 8.63704 19.5 10.5285 19.5 12.4556C19.5 12.8069 19.78 13.092 20.125 13.092C20.47 13.092 20.75 12.8069 20.75 12.4556C20.75 9.8386 18.32 7.3642 15.75 7.3642ZM15.75 9.90988C15.405 9.90988 15.125 10.195 15.125 10.5463C15.125 10.8976 15.405 11.1827 15.75 11.1827C16.5562 11.1827 17 11.6346 17 12.4556C17 12.8069 17.28 13.092 17.625 13.092C17.97 13.092 18.25 12.8069 18.25 12.4556C18.25 10.9332 17.245 9.90988 15.75 9.90988Z" />
</svg>
